<?xml version="1.0" standalone="no"?>
<!DOCTYPE svg PUBLIC "-//W3C//DTD SVG 20010904//EN"
 "http://www.w3.org/TR/2001/REC-SVG-20010904/DTD/svg10.dtd">
<svg version="1.0" xmlns="http://www.w3.org/2000/svg"
 width="194.000000pt" height="110.000000pt" viewBox="0 0 194.000000 110.000000"
 preserveAspectRatio="xMidYMid meet">

<g transform="translate(0.000000,110.000000) scale(0.100000,-0.100000)"
fill="#000000" stroke="none">
<path d="M86 1069 c2 -4 -3 -6 -12 -5 -9 0 -26 -12 -38 -27 -21 -28 -21 -36
-21 -412 l0 -384 30 -31 c22 -23 35 -30 53 -25 13 3 21 2 18 -3 -3 -5 12 -6
37 -1 23 4 415 8 870 9 l829 0 29 29 29 29 0 380 0 379 -24 26 c-13 14 -39 28
-57 31 -47 8 -1748 13 -1743 5z m415 -166 c1 -17 2 -17 6 0 5 18 20 21 47 11
11 -4 14 -14 10 -33 -4 -20 -3 -23 5 -11 8 11 11 12 11 2 0 -7 5 -10 11 -6 8
5 8 9 -1 14 -7 4 -11 13 -9 19 3 6 9 7 18 1 14 -8 9 -41 -16 -106 -3 -8 1 -14
11 -14 14 0 16 -22 17 -177 1 -146 3 -170 11 -133 9 37 12 41 18 25 6 -15 8
-8 9 25 1 25 2 63 3 86 1 22 -2 46 -6 53 -15 24 1 21 27 -5 22 -21 27 -23 27
-10 0 26 -27 73 -52 90 -26 18 -17 21 15 5 17 -8 16 -5 -6 15 -23 22 -25 26
-10 26 16 1 15 3 -6 20 -13 11 -18 20 -12 20 6 0 11 8 11 18 1 13 4 11 15 -8
8 -14 14 -20 15 -13 0 7 6 10 14 7 9 -3 12 -17 9 -45 -6 -47 3 -51 17 -6 10
31 10 31 5 2 -3 -16 -7 -46 -10 -65 l-5 -35 15 33 c16 33 35 43 35 17 0 -8 -4
-15 -8 -15 -11 0 -35 -51 -27 -58 3 -3 5 0 5 6 0 6 10 17 22 23 22 12 22 12 5
-12 -21 -29 -47 -83 -42 -88 2 -1 14 4 27 13 40 28 39 17 -2 -20 -22 -20 -38
-40 -35 -44 3 -5 1 -11 -5 -15 -5 -3 -10 -11 -10 -17 0 -6 11 -1 25 12 14 13
23 30 21 37 -6 14 3 17 21 5 17 -11 -3 -34 -66 -73 -59 -35 -56 -50 4 -25 21
9 38 16 40 16 1 0 1 -17 0 -37 -3 -37 -5 -39 -56 -54 -93 -28 -119 -32 -119
-17 0 10 -21 13 -85 13 -64 0 -85 -3 -85 -13 0 -8 -7 -11 -17 -8 -10 2 -34 8
-53 11 -19 4 -51 14 -70 21 -30 12 -35 19 -36 49 0 19 0 35 1 35 2 0 22 -7 45
-15 23 -8 46 -13 50 -10 5 3 11 -1 13 -7 3 -7 6 67 6 165 1 150 3 177 16 177
8 0 15 4 15 9 0 5 -7 28 -15 51 -19 53 -19 56 0 64 10 4 19 -2 26 -17 l10 -22
-5 22 c-5 27 4 31 77 32 47 1 57 -2 58 -16z m457 -35 c23 -23 14 -40 -18 -33
-37 8 -41 -11 -6 -25 38 -14 51 -46 31 -76 -13 -20 -24 -24 -65 -24 -46 0 -50
2 -50 24 0 23 3 24 35 19 19 -3 35 -1 35 4 0 5 -16 17 -35 26 -28 14 -35 22
-35 46 0 18 7 34 18 40 24 14 75 14 90 -1z m161 -65 c17 -43 31 -81 31 -85 0
-15 -48 -8 -54 7 -3 9 -18 15 -36 15 -20 0 -30 -5 -30 -15 0 -10 -10 -15 -30
-15 l-30 0 20 50 c46 117 48 120 73 120 21 0 29 -11 56 -77z m117 41 l19 -35
5 33 c4 27 10 34 33 36 20 3 27 -1 27 -15 1 -17 1 -17 11 0 14 24 139 26 139
2 0 -9 -11 -21 -25 -27 -23 -10 -25 -17 -25 -70 0 -55 -1 -58 -25 -58 -24 0
-25 3 -25 59 0 55 -2 59 -25 63 -24 5 -25 3 -25 -46 0 -83 -39 -102 -77 -38
l-22 37 -1 -37 c0 -34 -3 -38 -25 -38 -25 0 -25 1 -25 78 0 43 3 82 7 85 16
17 41 4 59 -29z m379 11 c54 -54 16 -145 -60 -145 -20 0 -44 4 -54 10 -25 13
-45 64 -37 95 16 65 104 88 151 40z m-1334 -17 c1 -7 1 -16 0 -20 0 -5 4 -8
10 -8 6 0 1 -9 -12 -21 l-24 -20 25 6 25 6 -25 -21 c-23 -20 -25 -21 -37 -4
-20 27 -16 46 7 39 14 -5 20 -2 20 10 0 9 -4 13 -10 10 -5 -3 -10 -1 -10 4 0
6 5 11 11 11 5 0 7 5 4 10 -3 6 -1 10 4 10 6 0 12 -6 12 -12z m-51 -109 c0 -5
4 -8 9 -5 5 4 12 0 15 -6 3 -9 9 -7 20 6 16 19 16 19 16 -2 0 -13 -8 -26 -17
-29 -19 -7 -33 -22 -33 -36 0 -4 9 -3 21 3 25 14 33 8 24 -19 -3 -12 -15 -21
-26 -21 -21 0 -25 -25 -9 -50 8 -13 10 -13 10 1 0 9 7 22 15 29 13 11 15 8 15
-20 0 -19 -7 -41 -16 -51 -10 -11 -12 -19 -5 -24 6 -3 11 1 11 9 0 9 5 16 10
16 6 0 10 -18 10 -40 0 -22 -4 -40 -10 -40 -5 0 -10 5 -10 10 0 6 -6 10 -14
10 -7 0 -19 7 -27 16 -10 13 -10 17 2 25 20 12 2 11 -23 -2 -17 -9 -19 -8 -13
10 3 12 -1 30 -11 46 -18 27 -7 33 26 15 17 -9 18 -8 13 7 -4 10 -13 23 -21
28 -8 7 -12 24 -10 45 4 35 4 35 15 10 17 -38 15 -8 -2 34 -14 32 -14 36 0 36
8 0 15 -5 15 -11z m764 -134 l31 -80 5 73 c5 69 15 91 43 92 5 0 18 -23 31
-51 l22 -52 23 52 c18 43 26 52 44 49 21 -3 22 -8 22 -83 0 -75 -1 -80 -22
-83 -20 -3 -23 1 -24 30 l-1 33 -14 -32 c-8 -18 -20 -33 -27 -33 -7 0 -21 15
-30 33 l-16 32 0 -32 -1 -33 -54 0 c-39 0 -55 4 -60 15 -3 8 -16 15 -30 15
-13 0 -26 -7 -30 -15 -5 -13 -56 -22 -56 -10 0 3 12 35 26 72 47 119 74 121
118 8z m375 8 c17 -43 31 -81 31 -85 0 -15 -48 -8 -54 7 -3 8 -17 15 -31 15
-14 0 -28 -7 -31 -15 -4 -8 -19 -15 -35 -15 l-28 0 30 72 c34 82 45 98 69 98
13 0 27 -22 49 -77z m176 57 c18 -15 20 -53 4 -82 -8 -15 -8 -27 0 -44 10 -22
8 -24 -19 -24 -20 0 -31 6 -35 20 -3 11 -11 20 -16 20 -5 0 -9 -9 -9 -20 0
-15 -7 -20 -25 -20 -25 0 -25 1 -25 79 0 54 4 81 13 85 20 9 96 0 112 -14z
m174 -6 c63 -53 25 -149 -59 -149 -82 0 -119 88 -61 146 37 37 79 38 120 3z
m-822 -214 c2 -8 -8 -23 -22 -33 l-25 -18 0 36 c0 32 3 36 22 33 13 -2 24 -10
25 -18z m99 -17 c2 -33 -10 -44 -19 -20 -4 9 -8 8 -16 -3 -8 -12 -11 -7 -11
23 0 34 3 38 22 35 18 -2 23 -10 24 -35z m92 20 c-2 -10 -10 -21 -18 -25 -12
-5 -12 -7 3 -7 9 -1 17 -6 17 -12 0 -6 -10 -9 -22 -7 -39 5 -37 68 2 68 14 0
20 -6 18 -17z m92 7 c0 -5 -6 -10 -12 -10 -9 0 -10 -3 -2 -8 8 -5 5 -13 -7
-26 -19 -19 -19 -19 -19 17 0 30 4 37 20 37 11 0 20 -4 20 -10z m93 -7 c-4
-10 -11 -21 -17 -25 -7 -5 -4 -8 7 -8 9 0 17 -4 17 -10 0 -5 -11 -10 -25 -10
-22 0 -25 4 -25 35 0 31 3 35 25 35 19 0 23 -4 18 -17z m67 -18 c0 -19 -4 -35
-10 -35 -5 0 -10 16 -10 35 0 19 5 35 10 35 6 0 10 -16 10 -35z m100 25 c0 -5
-4 -10 -9 -10 -5 0 -11 -12 -13 -27 -4 -25 -5 -26 -12 -8 -4 11 -12 28 -17 38
-8 14 -5 17 21 17 16 0 30 -4 30 -10z m60 -15 c0 -14 5 -25 10 -25 6 0 10 11
10 25 0 14 5 25 11 25 6 0 9 -14 7 -32 -5 -57 -57 -48 -58 10 0 12 5 22 10 22
6 0 10 -11 10 -25z m136 -12 c1 -18 -2 -33 -7 -33 -5 0 -9 5 -9 11 0 8 -5 8
-15 -1 -13 -11 -15 -7 -15 24 0 33 3 37 22 34 18 -2 23 -10 24 -35z m103 5
c12 -33 6 -52 -9 -28 -7 11 -11 11 -24 1 -14 -11 -16 -11 -16 3 0 22 18 56 29
56 5 0 14 -14 20 -32z"/>
<path d="M432 890 c0 -14 2 -19 5 -12 2 6 2 18 0 25 -3 6 -5 1 -5 -13z"/>
<path d="M450 892 c0 -5 9 -12 21 -15 13 -3 19 -1 16 6 -5 15 -37 22 -37 9z"/>
<path d="M380 876 c0 -7 12 -22 28 -32 20 -13 24 -14 14 -2 -7 8 -10 23 -6 32
4 12 0 16 -15 16 -12 0 -21 -6 -21 -14z m30 0 c0 -3 -4 -8 -10 -11 -5 -3 -10
-1 -10 4 0 6 5 11 10 11 6 0 10 -2 10 -4z"/>
<path d="M516 882 c-2 -4 4 -8 15 -8 10 0 19 4 19 8 0 4 -6 8 -14 8 -8 0 -17
-4 -20 -8z"/>
<path d="M340 871 c0 -6 4 -13 10 -16 6 -3 7 1 4 9 -7 18 -14 21 -14 7z"/>
<path d="M456 862 c-3 -5 1 -9 9 -9 8 0 12 4 9 9 -3 4 -7 8 -9 8 -2 0 -6 -4
-9 -8z"/>
<path d="M515 850 c-3 -6 1 -7 9 -4 18 7 21 14 7 14 -6 0 -13 -4 -16 -10z"/>
<path d="M575 839 c-4 -6 -5 -12 -2 -15 2 -3 7 2 10 11 7 17 1 20 -8 4z"/>
<path d="M400 813 c-57 -11 -33 -18 65 -18 57 0 100 3 96 8 -9 9 -127 17 -161
10z"/>
<path d="M340 616 l0 -154 64 -7 c35 -4 92 -4 125 0 l61 7 0 154 0 154 -125 0
-125 0 0 -154z m48 97 c-10 -12 -14 -12 -27 2 -14 14 -14 17 -1 25 21 13 44
-8 28 -27z m187 27 c3 -5 2 -17 -3 -26 -8 -14 -10 -14 -21 0 -13 15 -8 36 9
36 5 0 12 -4 15 -10z m-46 -51 c33 -31 44 -66 31 -105 -15 -44 -45 -64 -96
-64 -85 0 -125 100 -65 161 37 36 95 40 130 8z m-140 -187 c-5 -2 -7 -8 -3
-13 3 -5 -1 -9 -9 -9 -19 0 -29 24 -15 38 7 7 14 7 23 -1 7 -7 9 -14 4 -15z
m185 10 c2 -4 0 -14 -5 -22 -8 -13 -10 -13 -18 0 -10 15 -6 30 9 30 5 0 11 -4
14 -8z"/>
<path d="M440 689 c0 -5 -5 -7 -11 -4 -12 8 -49 -31 -49 -52 0 -26 29 -13 32
15 2 22 7 26 26 24 15 -2 22 2 22 12 0 9 -4 16 -10 16 -5 0 -10 -5 -10 -11z"/>
<path d="M470 685 c0 -8 7 -15 15 -15 8 0 15 6 15 13 0 8 4 7 10 -3 5 -8 9
-22 9 -30 0 -10 -2 -11 -6 -2 -5 14 -43 17 -43 3 0 -14 13 -20 54 -26 31 -6
35 -4 29 12 -15 42 -83 81 -83 48z"/>
<path d="M420 641 c0 -14 5 -18 19 -14 16 4 19 1 14 -16 -6 -23 14 -26 29 -6
5 6 8 3 8 -7 0 -9 -6 -19 -12 -21 -7 -3 -3 -6 9 -6 12 -1 24 5 26 12 3 7 6 4
6 -6 1 -24 22 -17 32 10 7 19 4 22 -19 21 -35 -1 -72 18 -72 37 0 8 -9 15 -20
15 -13 0 -20 -7 -20 -19z"/>
<path d="M380 597 c0 -8 9 -25 20 -37 24 -28 60 -37 60 -15 0 8 -7 15 -15 15
-8 0 -15 -6 -15 -12 0 -23 -20 16 -20 40 0 13 -6 22 -15 22 -8 0 -15 -6 -15
-13z"/>
<path d="M420 590 c0 -14 6 -20 23 -19 12 0 16 3 10 6 -7 2 -13 11 -13 19 0 8
-4 14 -10 14 -5 0 -10 -9 -10 -20z"/>
<path d="M470 545 c0 -16 33 -16 47 0 5 4 2 5 -4 1 -7 -4 -13 -2 -13 3 0 6 -7
11 -15 11 -8 0 -15 -7 -15 -15z"/>
<path d="M660 632 c0 -5 7 -25 15 -43 l14 -34 1 31 c0 17 -7 37 -15 44 -9 7
-15 8 -15 2z"/>
<path d="M1057 805 c-8 -20 -4 -29 11 -24 5 2 6 13 2 23 -6 19 -7 19 -13 1z"/>
<path d="M1521 812 c-13 -25 5 -52 34 -52 29 0 39 14 31 46 -8 29 -50 34 -65
6z"/>
<path d="M930 596 c0 -9 5 -16 10 -16 6 0 10 4 10 9 0 6 -4 13 -10 16 -5 3
-10 -1 -10 -9z"/>
<path d="M1306 595 c-3 -9 0 -15 9 -15 9 0 12 6 9 15 -4 8 -7 15 -9 15 -2 0
-5 -7 -9 -15z"/>
<path d="M1470 615 c0 -8 9 -15 20 -15 11 0 20 7 20 15 0 8 -9 15 -20 15 -11
0 -20 -7 -20 -15z"/>
<path d="M1630 611 c-13 -25 -4 -48 21 -56 38 -12 65 35 37 63 -18 18 -46 14
-58 -7z"/>
<path d="M543 83 c-17 -6 -17 -50 0 -56 8 -3 20 -1 28 4 11 7 9 9 -8 9 -14 0
-23 6 -23 15 0 8 9 15 21 15 11 0 17 5 14 10 -7 11 -13 11 -32 3z"/>
<path d="M690 75 c-18 -21 -5 -45 25 -45 20 0 25 5 25 24 0 13 -7 27 -16 30
-21 8 -20 8 -34 -9z m40 -20 c0 -8 -9 -15 -20 -15 -11 0 -20 7 -20 15 0 8 9
15 20 15 11 0 20 -7 20 -15z"/>
<path d="M1060 75 c-18 -21 -5 -45 25 -45 20 0 25 5 25 24 0 13 -7 27 -16 30
-21 8 -20 8 -34 -9z m40 -20 c0 -8 -6 -15 -14 -15 -17 0 -28 14 -19 24 12 12
33 6 33 -9z"/>
<path d="M1140 74 c-11 -13 -10 -16 8 -21 12 -3 19 -9 16 -14 -3 -5 0 -9 5 -9
6 0 11 7 11 15 0 8 -7 15 -15 15 -8 0 -15 5 -15 11 0 6 7 8 16 5 8 -3 12 -2 9
4 -9 14 -21 12 -35 -6z"/>
<path d="M198 55 c6 -32 18 -32 24 0 4 19 1 25 -12 25 -13 0 -16 -6 -12 -25z"/>
<path d="M250 56 c0 -19 5 -24 25 -22 45 2 44 46 -1 46 -19 0 -24 -5 -24 -24z
m40 4 c0 -5 -4 -10 -10 -10 -5 0 -10 5 -10 10 0 6 5 10 10 10 6 0 10 -4 10
-10z"/>
<path d="M340 71 c0 -5 -2 -15 -5 -23 -4 -9 4 -13 24 -14 27 -1 28 1 19 22
-11 23 -38 34 -38 15z"/>
<path d="M410 55 c0 -23 4 -26 28 -23 38 4 38 42 0 46 -24 3 -28 0 -28 -23z
m40 0 c0 -8 -7 -15 -15 -15 -8 0 -15 7 -15 15 0 8 7 15 15 15 8 0 15 -7 15
-15z"/>
<path d="M492 55 c0 -16 2 -22 5 -12 2 9 2 23 0 30 -3 6 -5 -1 -5 -18z"/>
<path d="M613 63 c-3 -10 -7 -21 -9 -24 -2 -3 10 -6 26 -6 34 0 34 1 20 28
-13 24 -29 24 -37 2z"/>
<path d="M800 55 c0 -19 5 -25 23 -24 21 0 21 1 2 8 l-20 8 20 5 20 6 -20 2
-20 1 20 9 c19 8 19 9 -2 9 -18 1 -23 -5 -23 -24z"/>
<path d="M900 55 c0 -29 7 -31 38 -9 27 18 20 34 -14 34 -19 0 -24 -5 -24 -25z
m40 5 c0 -5 -4 -10 -10 -10 -5 0 -10 5 -10 10 0 6 5 10 10 10 6 0 10 -4 10
-10z"/>
<path d="M980 56 c0 -17 5 -23 18 -22 37 3 44 46 7 46 -20 0 -25 -5 -25 -24z
m35 4 c-3 -5 -10 -10 -16 -10 -5 0 -9 5 -9 10 0 6 7 10 16 10 8 0 12 -4 9 -10z"/>
<path d="M1200 55 c0 -28 3 -29 31 -15 28 15 24 40 -6 40 -20 0 -25 -5 -25
-25z m40 5 c0 -5 -4 -10 -10 -10 -5 0 -10 5 -10 10 0 6 5 10 10 10 6 0 10 -4
10 -10z"/>
<path d="M1280 55 c0 -19 5 -25 23 -24 21 0 21 1 2 8 l-20 8 20 5 20 6 -20 2
-20 1 20 9 c19 8 19 9 -2 9 -18 1 -23 -5 -23 -24z"/>
<path d="M1350 56 c0 -17 5 -23 18 -22 37 3 39 46 1 46 -13 0 -19 -7 -19 -24z
m30 4 c0 -5 -4 -10 -10 -10 -5 0 -10 5 -10 10 0 6 5 10 10 10 6 0 10 -4 10
-10z"/>
<path d="M1422 55 c0 -16 2 -22 5 -12 2 9 2 23 0 30 -3 6 -5 -1 -5 -18z"/>
<path d="M1460 55 c0 -23 4 -26 28 -23 19 2 27 9 27 23 0 14 -8 21 -27 23 -24
3 -28 0 -28 -23z m43 0 c1 -5 -6 -11 -15 -13 -11 -2 -18 3 -18 13 0 17 30 18
33 0z"/>
<path d="M1550 61 c-14 -26 -14 -26 19 -27 27 -1 28 1 19 22 -14 29 -24 30
-38 5z m25 -1 c3 -5 1 -10 -4 -10 -6 0 -11 5 -11 10 0 6 2 10 4 10 3 0 8 -4
11 -10z"/>
<path d="M1620 55 c0 -23 4 -26 28 -23 19 2 27 9 27 23 0 14 -8 21 -27 23 -24
3 -28 0 -28 -23z m43 0 c1 -5 -6 -11 -15 -13 -11 -2 -18 3 -18 13 0 17 30 18
33 0z"/>
<path d="M1700 55 c0 -21 5 -25 28 -24 19 1 21 3 8 6 -15 4 -16 7 -5 14 12 7
12 9 -1 9 -13 0 -13 1 0 10 12 8 11 10 -7 10 -18 0 -23 -6 -23 -25z"/>
</g>
</svg>
